<?xml version="1.0" encoding="UTF-8"?>
<svg xmlns="http://www.w3.org/2000/svg" width="1280" height="850" viewBox="0 0 1280 850">
  
  <defs>
    
    <filter id="hud-glow-0" x="-60%" y="-60%" width="220%" height="220%">
      <feGaussianBlur stdDeviation="2.5" result="blur"/>
      <feMerge><feMergeNode in="blur"/><feMergeNode in="SourceGraphic"/></feMerge>
    </filter>
    <filter id="hud-glow-1" x="-60%" y="-60%" width="220%" height="220%">
      <feGaussianBlur stdDeviation="2.5" result="blur"/>
      <feMerge><feMergeNode in="blur"/><feMergeNode in="SourceGraphic"/></feMerge>
    </filter>
    <filter id="hud-glow-2" x="-60%" y="-60%" width="220%" height="220%">
      <feGaussianBlur stdDeviation="2.5" result="blur"/>
      <feMerge><feMergeNode in="blur"/><feMergeNode in="SourceGraphic"/></feMerge>
    </filter>
    <filter id="hud-glow-3" x="-60%" y="-60%" width="220%" height="220%">
      <feGaussianBlur stdDeviation="2.5" result="blur"/>
      <feMerge><feMergeNode in="blur"/><feMergeNode in="SourceGraphic"/></feMerge>
    </filter>
    <filter id="hud-glow-4" x="-60%" y="-60%" width="220%" height="220%">
      <feGaussianBlur stdDeviation="2.5" result="blur"/>
      <feMerge><feMergeNode in="blur"/><feMergeNode in="SourceGraphic"/></feMerge>
    </filter>
    <linearGradient id="scan-gradient" x1="0" y1="0" x2="1" y2="0">
      <stop offset="0%" stop-color="#4d4dff" stop-opacity="0"/>
      <stop offset="40%" stop-color="#3db840" stop-opacity="0.5"/>
      <stop offset="60%" stop-color="#ffd700" stop-opacity="0.5"/>
      <stop offset="100%" stop-color="#4d4dff" stop-opacity="0"/>
    </linearGradient>
    <radialGradient id="core-glow" cx="50%" cy="50%" r="50%">
      <stop offset="0%" stop-color="#3db840" stop-opacity="0.35"/>
      <stop offset="100%" stop-color="#3db840" stop-opacity="0"/>
    </radialGradient>
  </defs>

  <g id="orbital-stat-hud">
    <g opacity="0.06">
      <line x1="735" y1="105" x2="1225" y2="105" stroke="#111133" stroke-width="1"/>
<line x1="735" y1="145" x2="1225" y2="145" stroke="#111133" stroke-width="1"/>
<line x1="735" y1="185" x2="1225" y2="185" stroke="#111133" stroke-width="1"/>
<line x1="735" y1="225" x2="1225" y2="225" stroke="#111133" stroke-width="1"/>
<line x1="735" y1="265" x2="1225" y2="265" stroke="#111133" stroke-width="1"/>
<line x1="735" y1="305" x2="1225" y2="305" stroke="#111133" stroke-width="1"/>
<line x1="735" y1="345" x2="1225" y2="345" stroke="#111133" stroke-width="1"/>
<line x1="735" y1="385" x2="1225" y2="385" stroke="#111133" stroke-width="1"/>
<line x1="735" y1="425" x2="1225" y2="425" stroke="#111133" stroke-width="1"/>
    </g>

    <g transform="translate(980, 249.4)">
      <ellipse rx="168" ry="52" fill="none" stroke="#111133" stroke-width="0.7" opacity="0.1" stroke-dasharray="8 10">
        <animateTransform attributeName="transform" type="rotate" from="0" to="360" dur="30s" repeatCount="indefinite"/>
      </ellipse>
      <ellipse rx="114.24000000000001" ry="35.36" fill="none" stroke="#4d4dff" stroke-width="1" opacity="0.2" stroke-dasharray="5 7">
        <animateTransform attributeName="transform" type="rotate" from="360" to="0" dur="22s" repeatCount="indefinite"/>
      </ellipse>
      <ellipse rx="63.84" ry="19.76" fill="none" stroke="#3db840" stroke-width="1.5" opacity="0.3">
        <animateTransform attributeName="transform" type="rotate" from="0" to="360" dur="14s" repeatCount="indefinite"/>
      </ellipse>

      <circle r="92.4" fill="url(#core-glow)">
        <animate attributeName="r" values="75.60000000000001;100.8;75.60000000000001" dur="4s" repeatCount="indefinite"/>
      </circle>

      <g>
    <circle r="2.5" fill="#3db840" opacity="0.8">
      <animateMotion dur="6s" repeatCount="indefinite" path="M -92.4,0 A 92.4,28.6 0 1,1 92.4,0 A 92.4,28.6 0 1,1 -92.4,0"/>
    </circle>

    <circle r="2.5" fill="#4d4dff" opacity="0.8">
      <animateMotion dur="7.5s" repeatCount="indefinite" path="M -112.56,0 A 112.56,34.84 0 1,1 112.56,0 A 112.56,34.84 0 1,1 -112.56,0"/>
    </circle>

    <circle r="2.5" fill="#ffd700" opacity="0.8">
      <animateMotion dur="9s" repeatCount="indefinite" path="M -132.72,0 A 132.72,41.08 0 1,1 132.72,0 A 132.72,41.08 0 1,1 -132.72,0"/>
    </circle>

    <circle r="2.5" fill="#ff0040" opacity="0.8">
      <animateMotion dur="10.5s" repeatCount="indefinite" path="M -152.88,0 A 152.88,47.32 0 1,1 152.88,0 A 152.88,47.32 0 1,1 -152.88,0"/>
    </circle>

    <circle r="2.5" fill="#ff6b35" opacity="0.8">
      <animateMotion dur="12s" repeatCount="indefinite" path="M -173.04,0 A 173.04,53.56 0 1,1 173.04,0 A 173.04,53.56 0 1,1 -173.04,0"/>
    </circle></g>

      <circle r="10" fill="#3db840" opacity="0.6">
        <animate attributeName="r" values="7;13;7" dur="3s" repeatCount="indefinite"/>
        <animate attributeName="opacity" values="0.4;0.85;0.4" dur="3s" repeatCount="indefinite"/>
      </circle>
      <circle r="4" fill="#ffffff"/>
    </g>

    <line x1="980" y1="249.4" x2="980.0" y2="176.8" stroke="#3db840" stroke-width="1.2" opacity="0.12" stroke-dasharray="2 5"/>
<line x1="980" y1="249.4" x2="1101.7" y2="222.8" stroke="#ff0040" stroke-width="1.2" opacity="0.12" stroke-dasharray="2 5"/>
<line x1="980" y1="249.4" x2="1055.2" y2="297.2" stroke="#4d4dff" stroke-width="1.2" opacity="0.12" stroke-dasharray="2 5"/>
<line x1="980" y1="249.4" x2="904.8" y2="297.2" stroke="#ffd700" stroke-width="1.2" opacity="0.12" stroke-dasharray="2 5"/>
<line x1="980" y1="249.4" x2="858.3" y2="222.8" stroke="#ff6b35" stroke-width="1.2" opacity="0.12" stroke-dasharray="2 5"/>
    <g filter="url(#hud-glow-0)">
    <g opacity="0">
      <animate attributeName="opacity" from="0" to="1" dur="0.6s" begin="0s" fill="freeze"/>
      <polygon points="964,273.4 980,279.15999999999997 980,293.15999999999997 964,287.4" fill="#2d8a30"/>
      <polygon points="980,279.15999999999997 996,273.4 996,287.4 980,293.15999999999997" fill="#1f6b22"/>
      <polygon points="964,273.4 980,267.64 996,273.4 980,279.15999999999997" fill="#3db840"/>
      <polygon points="972.8,270.23199999999997 987.2,270.23199999999997 987.2,272.536 972.8,272.536" fill="#3db840" opacity="0.85"/>
    </g>
    <g opacity="0">
      <animate attributeName="opacity" from="0" to="1" dur="0.6s" begin="0.08s" fill="freeze"/>
      <polygon points="964,259.4 980,265.15999999999997 980,279.15999999999997 964,273.4" fill="#2d8a30"/>
      <polygon points="980,265.15999999999997 996,259.4 996,273.4 980,279.15999999999997" fill="#1f6b22"/>
      <polygon points="964,259.4 980,253.64 996,259.4 980,265.15999999999997" fill="#3db840"/>
      <polygon points="972.8,256.23199999999997 987.2,256.23199999999997 987.2,258.536 972.8,258.536" fill="#3db840" opacity="0.85"/>
    </g>
    <g opacity="0">
      <animate attributeName="opacity" from="0" to="1" dur="0.6s" begin="0.16s" fill="freeze"/>
      <polygon points="964,245.39999999999998 980,251.15999999999997 980,265.15999999999997 964,259.4" fill="#2d8a30"/>
      <polygon points="980,251.15999999999997 996,245.39999999999998 996,259.4 980,265.15999999999997" fill="#1f6b22"/>
      <polygon points="964,245.39999999999998 980,239.64 996,245.39999999999998 980,251.15999999999997" fill="#3db840"/>
      <polygon points="972.8,242.23199999999997 987.2,242.23199999999997 987.2,244.53599999999997 972.8,244.53599999999997" fill="#3db840" opacity="0.85"/>
    </g>
    <g opacity="0">
      <animate attributeName="opacity" from="0" to="1" dur="0.6s" begin="0.24s" fill="freeze"/>
      <polygon points="964,231.39999999999998 980,237.15999999999997 980,251.15999999999997 964,245.39999999999998" fill="#2d8a30"/>
      <polygon points="980,237.15999999999997 996,231.39999999999998 996,245.39999999999998 980,251.15999999999997" fill="#1f6b22"/>
      <polygon points="964,231.39999999999998 980,225.64 996,231.39999999999998 980,237.15999999999997" fill="#3db840"/>
      <polygon points="972.8,228.23199999999997 987.2,228.23199999999997 987.2,230.53599999999997 972.8,230.53599999999997" fill="#3db840" opacity="0.85"/>
    </g>
    <g opacity="0">
      <animate attributeName="opacity" from="0" to="1" dur="0.6s" begin="0.32s" fill="freeze"/>
      <polygon points="964,217.39999999999998 980,223.15999999999997 980,237.15999999999997 964,231.39999999999998" fill="#2d8a30"/>
      <polygon points="980,223.15999999999997 996,217.39999999999998 996,231.39999999999998 980,237.15999999999997" fill="#1f6b22"/>
      <polygon points="964,217.39999999999998 980,211.64 996,217.39999999999998 980,223.15999999999997" fill="#3db840"/>
      <polygon points="972.8,214.23199999999997 987.2,214.23199999999997 987.2,216.53599999999997 972.8,216.53599999999997" fill="#3db840" opacity="0.85"/>
    </g>
    <g opacity="0">
      <animate attributeName="opacity" from="0" to="1" dur="0.6s" begin="0.4s" fill="freeze"/>
      <polygon points="964,203.39999999999998 980,209.15999999999997 980,223.15999999999997 964,217.39999999999998" fill="#2d8a30"/>
      <polygon points="980,209.15999999999997 996,203.39999999999998 996,217.39999999999998 980,223.15999999999997" fill="#1f6b22"/>
      <polygon points="964,203.39999999999998 980,197.64 996,203.39999999999998 980,209.15999999999997" fill="#3db840"/>
      <polygon points="972.8,200.23199999999997 987.2,200.23199999999997 987.2,202.53599999999997 972.8,202.53599999999997" fill="#3db840" opacity="0.85"/>
    </g>
    <g opacity="0">
      <animate attributeName="opacity" from="0" to="1" dur="0.6s" begin="0.48s" fill="freeze"/>
      <polygon points="964,189.39999999999998 980,195.15999999999997 980,209.15999999999997 964,203.39999999999998" fill="#2d8a30"/>
      <polygon points="980,195.15999999999997 996,189.39999999999998 996,203.39999999999998 980,209.15999999999997" fill="#1f6b22"/>
      <polygon points="964,189.39999999999998 980,183.64 996,189.39999999999998 980,195.15999999999997" fill="#3db840"/>
      <polygon points="972.8,186.23199999999997 987.2,186.23199999999997 987.2,188.53599999999997 972.8,188.53599999999997" fill="#3db840" opacity="0.85"/>
    </g></g>
<g filter="url(#hud-glow-1)">
    <g opacity="0">
      <animate attributeName="opacity" from="0" to="1" dur="0.6s" begin="0.15s" fill="freeze"/>
      <polygon points="1085.7352340857797,273.4 1101.7352340857797,279.15999999999997 1101.7352340857797,293.15999999999997 1085.7352340857797,287.4" fill="#cc0033"/>
      <polygon points="1101.7352340857797,279.15999999999997 1117.7352340857797,273.4 1117.7352340857797,287.4 1101.7352340857797,293.15999999999997" fill="#990026"/>
      <polygon points="1085.7352340857797,273.4 1101.7352340857797,267.64 1117.7352340857797,273.4 1101.7352340857797,279.15999999999997" fill="#ff0040"/>
      <polygon points="1094.5352340857796,270.23199999999997 1108.9352340857797,270.23199999999997 1108.9352340857797,272.536 1094.5352340857796,272.536" fill="#ff0040" opacity="0.85"/>
    </g>
    <g opacity="0">
      <animate attributeName="opacity" from="0" to="1" dur="0.6s" begin="0.22999999999999998s" fill="freeze"/>
      <polygon points="1085.7352340857797,259.4 1101.7352340857797,265.15999999999997 1101.7352340857797,279.15999999999997 1085.7352340857797,273.4" fill="#cc0033"/>
      <polygon points="1101.7352340857797,265.15999999999997 1117.7352340857797,259.4 1117.7352340857797,273.4 1101.7352340857797,279.15999999999997" fill="#990026"/>
      <polygon points="1085.7352340857797,259.4 1101.7352340857797,253.64 1117.7352340857797,259.4 1101.7352340857797,265.15999999999997" fill="#ff0040"/>
      <polygon points="1094.5352340857796,256.23199999999997 1108.9352340857797,256.23199999999997 1108.9352340857797,258.536 1094.5352340857796,258.536" fill="#ff0040" opacity="0.85"/>
    </g>
    <g opacity="0">
      <animate attributeName="opacity" from="0" to="1" dur="0.6s" begin="0.31s" fill="freeze"/>
      <polygon points="1085.7352340857797,245.39999999999998 1101.7352340857797,251.15999999999997 1101.7352340857797,265.15999999999997 1085.7352340857797,259.4" fill="#cc0033"/>
      <polygon points="1101.7352340857797,251.15999999999997 1117.7352340857797,245.39999999999998 1117.7352340857797,259.4 1101.7352340857797,265.15999999999997" fill="#990026"/>
      <polygon points="1085.7352340857797,245.39999999999998 1101.7352340857797,239.64 1117.7352340857797,245.39999999999998 1101.7352340857797,251.15999999999997" fill="#ff0040"/>
      <polygon points="1094.5352340857796,242.23199999999997 1108.9352340857797,242.23199999999997 1108.9352340857797,244.53599999999997 1094.5352340857796,244.53599999999997" fill="#ff0040" opacity="0.85"/>
    </g>
    <g opacity="0">
      <animate attributeName="opacity" from="0" to="1" dur="0.6s" begin="0.39s" fill="freeze"/>
      <polygon points="1085.7352340857797,231.39999999999998 1101.7352340857797,237.15999999999997 1101.7352340857797,251.15999999999997 1085.7352340857797,245.39999999999998" fill="#cc0033"/>
      <polygon points="1101.7352340857797,237.15999999999997 1117.7352340857797,231.39999999999998 1117.7352340857797,245.39999999999998 1101.7352340857797,251.15999999999997" fill="#990026"/>
      <polygon points="1085.7352340857797,231.39999999999998 1101.7352340857797,225.64 1117.7352340857797,231.39999999999998 1101.7352340857797,237.15999999999997" fill="#ff0040"/>
      <polygon points="1094.5352340857796,228.23199999999997 1108.9352340857797,228.23199999999997 1108.9352340857797,230.53599999999997 1094.5352340857796,230.53599999999997" fill="#ff0040" opacity="0.85"/>
    </g></g>
<g filter="url(#hud-glow-2)">
    <g opacity="0">
      <animate attributeName="opacity" from="0" to="1" dur="0.6s" begin="0.3s" fill="freeze"/>
      <polygon points="1039.2365122934366,273.4 1055.2365122934366,279.15999999999997 1055.2365122934366,293.15999999999997 1039.2365122934366,287.4" fill="#3333cc"/>
      <polygon points="1055.2365122934366,279.15999999999997 1071.2365122934366,273.4 1071.2365122934366,287.4 1055.2365122934366,293.15999999999997" fill="#222299"/>
      <polygon points="1039.2365122934366,273.4 1055.2365122934366,267.64 1071.2365122934366,273.4 1055.2365122934366,279.15999999999997" fill="#4d4dff"/>
      <polygon points="1048.0365122934365,270.23199999999997 1062.4365122934366,270.23199999999997 1062.4365122934366,272.536 1048.0365122934365,272.536" fill="#4d4dff" opacity="0.85"/>
    </g>
    <g opacity="0">
      <animate attributeName="opacity" from="0" to="1" dur="0.6s" begin="0.38s" fill="freeze"/>
      <polygon points="1039.2365122934366,259.4 1055.2365122934366,265.15999999999997 1055.2365122934366,279.15999999999997 1039.2365122934366,273.4" fill="#3333cc"/>
      <polygon points="1055.2365122934366,265.15999999999997 1071.2365122934366,259.4 1071.2365122934366,273.4 1055.2365122934366,279.15999999999997" fill="#222299"/>
      <polygon points="1039.2365122934366,259.4 1055.2365122934366,253.64 1071.2365122934366,259.4 1055.2365122934366,265.15999999999997" fill="#4d4dff"/>
      <polygon points="1048.0365122934365,256.23199999999997 1062.4365122934366,256.23199999999997 1062.4365122934366,258.536 1048.0365122934365,258.536" fill="#4d4dff" opacity="0.85"/>
    </g>
    <g opacity="0">
      <animate attributeName="opacity" from="0" to="1" dur="0.6s" begin="0.45999999999999996s" fill="freeze"/>
      <polygon points="1039.2365122934366,245.39999999999998 1055.2365122934366,251.15999999999997 1055.2365122934366,265.15999999999997 1039.2365122934366,259.4" fill="#3333cc"/>
      <polygon points="1055.2365122934366,251.15999999999997 1071.2365122934366,245.39999999999998 1071.2365122934366,259.4 1055.2365122934366,265.15999999999997" fill="#222299"/>
      <polygon points="1039.2365122934366,245.39999999999998 1055.2365122934366,239.64 1071.2365122934366,245.39999999999998 1055.2365122934366,251.15999999999997" fill="#4d4dff"/>
      <polygon points="1048.0365122934365,242.23199999999997 1062.4365122934366,242.23199999999997 1062.4365122934366,244.53599999999997 1048.0365122934365,244.53599999999997" fill="#4d4dff" opacity="0.85"/>
    </g>
    <g opacity="0">
      <animate attributeName="opacity" from="0" to="1" dur="0.6s" begin="0.54s" fill="freeze"/>
      <polygon points="1039.2365122934366,231.39999999999998 1055.2365122934366,237.15999999999997 1055.2365122934366,251.15999999999997 1039.2365122934366,245.39999999999998" fill="#3333cc"/>
      <polygon points="1055.2365122934366,237.15999999999997 1071.2365122934366,231.39999999999998 1071.2365122934366,245.39999999999998 1055.2365122934366,251.15999999999997" fill="#222299"/>
      <polygon points="1039.2365122934366,231.39999999999998 1055.2365122934366,225.64 1071.2365122934366,231.39999999999998 1055.2365122934366,237.15999999999997" fill="#4d4dff"/>
      <polygon points="1048.0365122934365,228.23199999999997 1062.4365122934366,228.23199999999997 1062.4365122934366,230.53599999999997 1048.0365122934365,230.53599999999997" fill="#4d4dff" opacity="0.85"/>
    </g>
    <g opacity="0">
      <animate attributeName="opacity" from="0" to="1" dur="0.6s" begin="0.62s" fill="freeze"/>
      <polygon points="1039.2365122934366,217.39999999999998 1055.2365122934366,223.15999999999997 1055.2365122934366,237.15999999999997 1039.2365122934366,231.39999999999998" fill="#3333cc"/>
      <polygon points="1055.2365122934366,223.15999999999997 1071.2365122934366,217.39999999999998 1071.2365122934366,231.39999999999998 1055.2365122934366,237.15999999999997" fill="#222299"/>
      <polygon points="1039.2365122934366,217.39999999999998 1055.2365122934366,211.64 1071.2365122934366,217.39999999999998 1055.2365122934366,223.15999999999997" fill="#4d4dff"/>
      <polygon points="1048.0365122934365,214.23199999999997 1062.4365122934366,214.23199999999997 1062.4365122934366,216.53599999999997 1048.0365122934365,216.53599999999997" fill="#4d4dff" opacity="0.85"/>
    </g></g>
<g filter="url(#hud-glow-3)">
    <g opacity="0">
      <animate attributeName="opacity" from="0" to="1" dur="0.6s" begin="0.44999999999999996s" fill="freeze"/>
      <polygon points="888.7634877065634,273.4 904.7634877065634,279.15999999999997 904.7634877065634,293.15999999999997 888.7634877065634,287.4" fill="#ccac00"/>
      <polygon points="904.7634877065634,279.15999999999997 920.7634877065634,273.4 920.7634877065634,287.4 904.7634877065634,293.15999999999997" fill="#997f00"/>
      <polygon points="888.7634877065634,273.4 904.7634877065634,267.64 920.7634877065634,273.4 904.7634877065634,279.15999999999997" fill="#ffd700"/>
      <polygon points="897.5634877065634,270.23199999999997 911.9634877065635,270.23199999999997 911.9634877065635,272.536 897.5634877065634,272.536" fill="#ffd700" opacity="0.85"/>
    </g>
    <g opacity="0">
      <animate attributeName="opacity" from="0" to="1" dur="0.6s" begin="0.5299999999999999s" fill="freeze"/>
      <polygon points="888.7634877065634,259.4 904.7634877065634,265.15999999999997 904.7634877065634,279.15999999999997 888.7634877065634,273.4" fill="#ccac00"/>
      <polygon points="904.7634877065634,265.15999999999997 920.7634877065634,259.4 920.7634877065634,273.4 904.7634877065634,279.15999999999997" fill="#997f00"/>
      <polygon points="888.7634877065634,259.4 904.7634877065634,253.64 920.7634877065634,259.4 904.7634877065634,265.15999999999997" fill="#ffd700"/>
      <polygon points="897.5634877065634,256.23199999999997 911.9634877065635,256.23199999999997 911.9634877065635,258.536 897.5634877065634,258.536" fill="#ffd700" opacity="0.85"/>
    </g>
    <g opacity="0">
      <animate attributeName="opacity" from="0" to="1" dur="0.6s" begin="0.61s" fill="freeze"/>
      <polygon points="888.7634877065634,245.39999999999998 904.7634877065634,251.15999999999997 904.7634877065634,265.15999999999997 888.7634877065634,259.4" fill="#ccac00"/>
      <polygon points="904.7634877065634,251.15999999999997 920.7634877065634,245.39999999999998 920.7634877065634,259.4 904.7634877065634,265.15999999999997" fill="#997f00"/>
      <polygon points="888.7634877065634,245.39999999999998 904.7634877065634,239.64 920.7634877065634,245.39999999999998 904.7634877065634,251.15999999999997" fill="#ffd700"/>
      <polygon points="897.5634877065634,242.23199999999997 911.9634877065635,242.23199999999997 911.9634877065635,244.53599999999997 897.5634877065634,244.53599999999997" fill="#ffd700" opacity="0.85"/>
    </g>
    <g opacity="0">
      <animate attributeName="opacity" from="0" to="1" dur="0.6s" begin="0.69s" fill="freeze"/>
      <polygon points="888.7634877065634,231.39999999999998 904.7634877065634,237.15999999999997 904.7634877065634,251.15999999999997 888.7634877065634,245.39999999999998" fill="#ccac00"/>
      <polygon points="904.7634877065634,237.15999999999997 920.7634877065634,231.39999999999998 920.7634877065634,245.39999999999998 904.7634877065634,251.15999999999997" fill="#997f00"/>
      <polygon points="888.7634877065634,231.39999999999998 904.7634877065634,225.64 920.7634877065634,231.39999999999998 904.7634877065634,237.15999999999997" fill="#ffd700"/>
      <polygon points="897.5634877065634,228.23199999999997 911.9634877065635,228.23199999999997 911.9634877065635,230.53599999999997 897.5634877065634,230.53599999999997" fill="#ffd700" opacity="0.85"/>
    </g></g>
<g filter="url(#hud-glow-4)">
    <g opacity="0">
      <animate attributeName="opacity" from="0" to="1" dur="0.6s" begin="0.6s" fill="freeze"/>
      <polygon points="842.2647659142203,273.4 858.2647659142203,279.15999999999997 858.2647659142203,293.15999999999997 842.2647659142203,287.4" fill="#cc5529"/>
      <polygon points="858.2647659142203,279.15999999999997 874.2647659142203,273.4 874.2647659142203,287.4 858.2647659142203,293.15999999999997" fill="#99401f"/>
      <polygon points="842.2647659142203,273.4 858.2647659142203,267.64 874.2647659142203,273.4 858.2647659142203,279.15999999999997" fill="#ff6b35"/>
      <polygon points="851.0647659142203,270.23199999999997 865.4647659142204,270.23199999999997 865.4647659142204,272.536 851.0647659142203,272.536" fill="#ff6b35" opacity="0.85"/>
    </g>
    <g opacity="0">
      <animate attributeName="opacity" from="0" to="1" dur="0.6s" begin="0.6799999999999999s" fill="freeze"/>
      <polygon points="842.2647659142203,259.4 858.2647659142203,265.15999999999997 858.2647659142203,279.15999999999997 842.2647659142203,273.4" fill="#cc5529"/>
      <polygon points="858.2647659142203,265.15999999999997 874.2647659142203,259.4 874.2647659142203,273.4 858.2647659142203,279.15999999999997" fill="#99401f"/>
      <polygon points="842.2647659142203,259.4 858.2647659142203,253.64 874.2647659142203,259.4 858.2647659142203,265.15999999999997" fill="#ff6b35"/>
      <polygon points="851.0647659142203,256.23199999999997 865.4647659142204,256.23199999999997 865.4647659142204,258.536 851.0647659142203,258.536" fill="#ff6b35" opacity="0.85"/>
    </g>
    <g opacity="0">
      <animate attributeName="opacity" from="0" to="1" dur="0.6s" begin="0.76s" fill="freeze"/>
      <polygon points="842.2647659142203,245.39999999999998 858.2647659142203,251.15999999999997 858.2647659142203,265.15999999999997 842.2647659142203,259.4" fill="#cc5529"/>
      <polygon points="858.2647659142203,251.15999999999997 874.2647659142203,245.39999999999998 874.2647659142203,259.4 858.2647659142203,265.15999999999997" fill="#99401f"/>
      <polygon points="842.2647659142203,245.39999999999998 858.2647659142203,239.64 874.2647659142203,245.39999999999998 858.2647659142203,251.15999999999997" fill="#ff6b35"/>
      <polygon points="851.0647659142203,242.23199999999997 865.4647659142204,242.23199999999997 865.4647659142204,244.53599999999997 851.0647659142203,244.53599999999997" fill="#ff6b35" opacity="0.85"/>
    </g></g>
    
    <g>
      <circle cx="980.0" cy="176.8" r="7" fill="none" stroke="#3db840" stroke-width="1.5" opacity="0.5">
        <animate attributeName="r" values="5;9;5" dur="2.2s" repeatCount="indefinite"/>
        <animate attributeName="opacity" values="0.3;0.7;0.3" dur="2.2s" repeatCount="indefinite"/>
      </circle>
      <circle cx="980.0" cy="176.8" r="3.5" fill="#3db840"/>
    </g>

    <g>
      <circle cx="1101.7" cy="222.8" r="7" fill="none" stroke="#ff0040" stroke-width="1.5" opacity="0.5">
        <animate attributeName="r" values="5;9;5" dur="2.45s" repeatCount="indefinite"/>
        <animate attributeName="opacity" values="0.3;0.7;0.3" dur="2.45s" repeatCount="indefinite"/>
      </circle>
      <circle cx="1101.7" cy="222.8" r="3.5" fill="#ff0040"/>
    </g>

    <g>
      <circle cx="1055.2" cy="297.2" r="7" fill="none" stroke="#4d4dff" stroke-width="1.5" opacity="0.5">
        <animate attributeName="r" values="5;9;5" dur="2.7s" repeatCount="indefinite"/>
        <animate attributeName="opacity" values="0.3;0.7;0.3" dur="2.7s" repeatCount="indefinite"/>
      </circle>
      <circle cx="1055.2" cy="297.2" r="3.5" fill="#4d4dff"/>
    </g>

    <g>
      <circle cx="904.8" cy="297.2" r="7" fill="none" stroke="#ffd700" stroke-width="1.5" opacity="0.5">
        <animate attributeName="r" values="5;9;5" dur="2.95s" repeatCount="indefinite"/>
        <animate attributeName="opacity" values="0.3;0.7;0.3" dur="2.95s" repeatCount="indefinite"/>
      </circle>
      <circle cx="904.8" cy="297.2" r="3.5" fill="#ffd700"/>
    </g>

    <g>
      <circle cx="858.3" cy="222.8" r="7" fill="none" stroke="#ff6b35" stroke-width="1.5" opacity="0.5">
        <animate attributeName="r" values="5;9;5" dur="3.2s" repeatCount="indefinite"/>
        <animate attributeName="opacity" values="0.3;0.7;0.3" dur="3.2s" repeatCount="indefinite"/>
      </circle>
      <circle cx="858.3" cy="222.8" r="3.5" fill="#ff6b35"/>
    </g>
    
    <g transform="translate(980.0, 305.4)">
      <text text-anchor="middle" fill="#111133" font-size="10" font-weight="700" letter-spacing="0.5" font-family="Ubuntu, Helvetica, Arial, sans-serif">COMMIT</text>
      <text y="15" text-anchor="middle" fill="#3db840" font-size="14" font-weight="800" font-family="Ubuntu, Helvetica, Arial, sans-serif">847</text>
    </g>

    <g transform="translate(1101.7, 305.4)">
      <text text-anchor="middle" fill="#111133" font-size="10" font-weight="700" letter-spacing="0.5" font-family="Ubuntu, Helvetica, Arial, sans-serif">ISSUE</text>
      <text y="15" text-anchor="middle" fill="#ff0040" font-size="14" font-weight="800" font-family="Ubuntu, Helvetica, Arial, sans-serif">23</text>
    </g>

    <g transform="translate(1055.2, 305.4)">
      <text text-anchor="middle" fill="#111133" font-size="10" font-weight="700" letter-spacing="0.5" font-family="Ubuntu, Helvetica, Arial, sans-serif">PULLREQ</text>
      <text y="15" text-anchor="middle" fill="#4d4dff" font-size="14" font-weight="800" font-family="Ubuntu, Helvetica, Arial, sans-serif">156</text>
    </g>

    <g transform="translate(904.8, 305.4)">
      <text text-anchor="middle" fill="#111133" font-size="10" font-weight="700" letter-spacing="0.5" font-family="Ubuntu, Helvetica, Arial, sans-serif">REVIEW</text>
      <text y="15" text-anchor="middle" fill="#ffd700" font-size="14" font-weight="800" font-family="Ubuntu, Helvetica, Arial, sans-serif">42</text>
    </g>

    <g transform="translate(858.3, 305.4)">
      <text text-anchor="middle" fill="#111133" font-size="10" font-weight="700" letter-spacing="0.5" font-family="Ubuntu, Helvetica, Arial, sans-serif">REPO</text>
      <text y="15" text-anchor="middle" fill="#ff6b35" font-size="14" font-weight="800" font-family="Ubuntu, Helvetica, Arial, sans-serif">12</text>
    </g>

    <rect x="730" y="98" width="500" height="2" fill="url(#scan-gradient)" opacity="0.7" rx="1">
      <animate attributeName="y" values="98;424;98" dur="5s" repeatCount="indefinite"/>
    </rect>

    <text x="980" y="90" text-anchor="middle" fill="#111133" font-size="9" font-weight="800" letter-spacing="4" font-family="Ubuntu, Helvetica, Arial, sans-serif" opacity="0.35">◈ ACTIVITY ORBIT ◈</text>
  </g>
  <style>
    .fill-bg { fill: #ffffff; }
    .fill-fg { fill: #00000f; }
    .fill-strong { fill: #111133; }
    .fill-weak { fill: gray; }
    .stroke-weak { stroke: gray; }
    .radar { fill: #47a042; opacity: 0.6; }
  
    @keyframes hud-fade-in { from { opacity: 0; transform: translateY(6px); } to { opacity: 1; transform: translateY(0); } }
    #orbital-stat-hud { animation: hud-fade-in 1.4s ease-out; }
  </style>
  <rect x="0" y="0" width="1280" height="850" class="fill-bg"/>
  <text x="640" y="700" text-anchor="middle" class="fill-weak" font-size="14">Lego contribution graph renders here</text>
  
  <text x="1260" y="20" text-anchor="end" class="fill-weak" font-size="16">2025-06-22 / 2026-06-23</text>
</svg>